<svg width="64" height="64" viewBox="0 0 64 64" fill="none" xmlns="http://www.w3.org/2000/svg">
<mask id="mask0_1_5" style="mask-type:luminance" maskUnits="userSpaceOnUse" x="0" y="0" width="64" height="64">
<path d="M40.1358 0H23.6093C10.5702 0 0 10.5702 0 23.6093V40.1358C0 53.1749 10.5702 63.7451 23.6093 63.7451H40.1358C53.1749 63.7451 63.7451 53.1749 63.7451 40.1358V23.6093C63.7451 10.5702 53.1749 0 40.1358 0Z" fill="white"/>
</mask>
<g mask="url(#mask0_1_5)">
<path d="M40.1358 0H23.6093C10.5702 0 0 10.5702 0 23.6093V40.1358C0 53.1749 10.5702 63.7451 23.6093 63.7451H40.1358C53.1749 63.7451 63.7451 53.1749 63.7451 40.1358V23.6093C63.7451 10.5702 53.1749 0 40.1358 0Z" fill="#2D5BE6"/>
<path d="M34.027 14.0909H43.3679V38.0227C43.3565 40.2955 42.7827 42.2955 41.6463 44.0227C40.5213 45.7386 38.9645 47.0795 36.9759 48.0455C34.9986 49 32.7202 49.4773 30.1406 49.4773C27.902 49.4773 25.8565 49.0909 24.0043 48.3182C22.152 47.5341 20.6747 46.3068 19.5724 44.6364C18.4702 42.9545 17.9247 40.7727 17.9361 38.0909H27.4134C27.4474 38.9659 27.5952 39.7045 27.8565 40.3068C28.1293 40.9091 28.5043 41.3636 28.9815 41.6705C29.4702 41.9659 30.0611 42.1136 30.7543 42.1136C31.4588 42.1136 32.0497 41.9602 32.527 41.6534C33.0156 41.3466 33.3849 40.892 33.6349 40.2898C33.8849 39.6761 34.0156 38.9205 34.027 38.0227V14.0909Z" fill="white"/>
</g>
</svg>
