<svg width="325" height="64" viewBox="0 0 325 64" fill="none" xmlns="http://www.w3.org/2000/svg">
<g clip-path="url(#clip0_1_3)">
<mask id="mask0_1_3" style="mask-type:luminance" maskUnits="userSpaceOnUse" x="0" y="0" width="325" height="64">
<path d="M325 0H0V64H325V0Z" fill="white"/>
</mask>
<g mask="url(#mask0_1_3)">
<mask id="mask1_1_3" style="mask-type:luminance" maskUnits="userSpaceOnUse" x="0" y="0" width="64" height="64">
<path d="M64 0H0V64H64V0Z" fill="white"/>
</mask>
<g mask="url(#mask1_1_3)">
<mask id="mask2_1_3" style="mask-type:luminance" maskUnits="userSpaceOnUse" x="0" y="0" width="64" height="64">
<path d="M40.1358 0H23.6093C10.5702 0 0 10.5702 0 23.6093V40.1358C0 53.1749 10.5702 63.7451 23.6093 63.7451H40.1358C53.1749 63.7451 63.7451 53.1749 63.7451 40.1358V23.6093C63.7451 10.5702 53.1749 0 40.1358 0Z" fill="white"/>
</mask>
<g mask="url(#mask2_1_3)">
<path d="M40.1358 0H23.6093C10.5702 0 0 10.5702 0 23.6093V40.1358C0 53.1749 10.5702 63.7451 23.6093 63.7451H40.1358C53.1749 63.7451 63.7451 53.1749 63.7451 40.1358V23.6093C63.7451 10.5702 53.1749 0 40.1358 0Z" fill="#2D5BE6"/>
<path d="M34.027 14.0909H43.3679V38.0227C43.3565 40.2955 42.7827 42.2955 41.6463 44.0227C40.5213 45.7386 38.9645 47.0795 36.9759 48.0455C34.9986 49 32.7202 49.4773 30.1406 49.4773C27.902 49.4773 25.8565 49.0909 24.0043 48.3182C22.152 47.5341 20.6747 46.3068 19.5724 44.6364C18.4702 42.9545 17.9247 40.7727 17.9361 38.0909H27.4134C27.4474 38.9659 27.5952 39.7045 27.8565 40.3068C28.1293 40.9091 28.5043 41.3636 28.9815 41.6705C29.4702 41.9659 30.0611 42.1136 30.7543 42.1136C31.4588 42.1136 32.0497 41.9602 32.527 41.6534C33.0156 41.3466 33.3849 40.892 33.6349 40.2898C33.8849 39.6761 34.0156 38.9205 34.027 38.0227V14.0909Z" fill="white"/>
</g>
</g>
</g>
<path d="M92.0114 15.0909H99.3068V39.4318C99.3068 41.6818 98.8011 43.6364 97.7898 45.2955C96.7898 46.9545 95.3977 48.233 93.6136 49.1307C91.8295 50.0284 89.7557 50.4773 87.392 50.4773C85.2898 50.4773 83.3807 50.108 81.6648 49.3693C79.9602 48.6193 78.608 47.483 77.608 45.9602C76.608 44.4261 76.1136 42.5 76.125 40.1818H83.4716C83.4943 41.1023 83.6818 41.892 84.0341 42.5511C84.3977 43.1989 84.892 43.6989 85.517 44.0511C86.1534 44.392 86.9034 44.5625 87.767 44.5625C88.6761 44.5625 89.4432 44.3693 90.0682 43.983C90.7045 43.5852 91.1875 43.0057 91.517 42.2443C91.8466 41.483 92.0114 40.5455 92.0114 39.4318V15.0909ZM112.739 50.4943C111.068 50.4943 109.58 50.2045 108.273 49.625C106.966 49.0341 105.932 48.1648 105.17 47.017C104.42 45.858 104.045 44.4148 104.045 42.6875C104.045 41.233 104.313 40.0114 104.847 39.0227C105.381 38.0341 106.108 37.2386 107.028 36.6364C107.949 36.0341 108.994 35.5795 110.165 35.2727C111.347 34.9659 112.585 34.75 113.881 34.625C115.403 34.4659 116.631 34.3182 117.562 34.1818C118.494 34.0341 119.17 33.8182 119.591 33.5341C120.011 33.25 120.222 32.8295 120.222 32.2727V32.1705C120.222 31.0909 119.881 30.2557 119.199 29.6648C118.528 29.0739 117.574 28.7784 116.335 28.7784C115.028 28.7784 113.989 29.0682 113.216 29.6477C112.443 30.2159 111.932 30.9318 111.682 31.7955L104.966 31.25C105.307 29.6591 105.977 28.2841 106.977 27.125C107.977 25.9545 109.267 25.0568 110.847 24.4318C112.438 23.7955 114.278 23.4773 116.369 23.4773C117.824 23.4773 119.216 23.6477 120.545 23.9886C121.886 24.3295 123.074 24.858 124.108 25.5739C125.153 26.2898 125.977 27.2102 126.58 28.3352C127.182 29.4489 127.483 30.7841 127.483 32.3409V50H120.597V46.3693H120.392C119.972 47.1875 119.409 47.9091 118.705 48.5341C118 49.1477 117.153 49.6307 116.165 49.983C115.176 50.3239 114.034 50.4943 112.739 50.4943ZM114.818 45.483C115.886 45.483 116.83 45.2727 117.648 44.8523C118.466 44.4205 119.108 43.8409 119.574 43.1136C120.04 42.3864 120.273 41.5625 120.273 40.642V37.8636C120.045 38.0114 119.733 38.1477 119.335 38.2727C118.949 38.3864 118.511 38.4943 118.023 38.5966C117.534 38.6875 117.045 38.7727 116.557 38.8523C116.068 38.9205 115.625 38.983 115.227 39.0398C114.375 39.1648 113.631 39.3636 112.994 39.6364C112.358 39.9091 111.864 40.2784 111.511 40.7443C111.159 41.1989 110.983 41.767 110.983 42.4489C110.983 43.4375 111.341 44.1932 112.057 44.7159C112.784 45.2273 113.705 45.483 114.818 45.483ZM133.116 50V23.8182H140.037V28.4375H140.344C140.889 26.9034 141.798 25.6932 143.071 24.8068C144.344 23.9205 145.866 23.4773 147.639 23.4773C149.435 23.4773 150.963 23.9261 152.224 24.8239C153.486 25.7102 154.327 26.9148 154.747 28.4375H155.02C155.554 26.9375 156.52 25.7386 157.918 24.8409C159.327 23.9318 160.991 23.4773 162.912 23.4773C165.355 23.4773 167.338 24.2557 168.861 25.8125C170.395 27.358 171.162 29.5511 171.162 32.392V50H163.918V33.8239C163.918 32.3693 163.531 31.2784 162.759 30.5511C161.986 29.8239 161.02 29.4602 159.861 29.4602C158.543 29.4602 157.514 29.8807 156.776 30.7216C156.037 31.5511 155.668 32.6477 155.668 34.0114V50H148.628V33.6705C148.628 32.3864 148.259 31.3636 147.52 30.6023C146.793 29.8409 145.832 29.4602 144.639 29.4602C143.832 29.4602 143.105 29.6648 142.457 30.0739C141.821 30.4716 141.315 31.0341 140.94 31.7614C140.565 32.4773 140.378 33.3182 140.378 34.2841V50H133.116ZM198.682 31.2841L192.034 31.6932C191.92 31.125 191.676 30.6136 191.301 30.1591C190.926 29.6932 190.432 29.3239 189.818 29.0511C189.216 28.767 188.494 28.625 187.653 28.625C186.528 28.625 185.58 28.8636 184.807 29.3409C184.034 29.8068 183.648 30.4318 183.648 31.2159C183.648 31.8409 183.898 32.3693 184.398 32.8011C184.898 33.233 185.756 33.5795 186.972 33.8409L191.71 34.7955C194.256 35.3182 196.153 36.1591 197.403 37.3182C198.653 38.4773 199.278 40 199.278 41.8864C199.278 43.6023 198.773 45.108 197.761 46.4034C196.761 47.6989 195.386 48.7102 193.636 49.4375C191.898 50.1534 189.892 50.5114 187.619 50.5114C184.153 50.5114 181.392 49.7898 179.335 48.3466C177.29 46.892 176.091 44.9148 175.739 42.4148L182.881 42.0398C183.097 43.0966 183.619 43.9034 184.449 44.4602C185.278 45.0057 186.341 45.2784 187.636 45.2784C188.909 45.2784 189.932 45.0341 190.705 44.5455C191.489 44.0455 191.886 43.4034 191.898 42.6193C191.886 41.9602 191.608 41.4205 191.062 41C190.517 40.5682 189.676 40.2386 188.54 40.0114L184.006 39.108C181.449 38.5966 179.545 37.7102 178.295 36.4489C177.057 35.1875 176.438 33.5795 176.438 31.625C176.438 29.9432 176.892 28.4943 177.801 27.2784C178.722 26.0625 180.011 25.125 181.67 24.4659C183.341 23.8068 185.295 23.4773 187.534 23.4773C190.841 23.4773 193.443 24.1761 195.341 25.5739C197.25 26.9716 198.364 28.875 198.682 31.2841ZM203.851 50V23.8182H210.891V28.3864H211.163C211.641 26.7614 212.442 25.5341 213.567 24.7045C214.692 23.8636 215.987 23.4432 217.453 23.4432C217.817 23.4432 218.209 23.4659 218.629 23.5114C219.05 23.5568 219.419 23.6193 219.737 23.6989V30.142C219.396 30.0398 218.925 29.9489 218.322 29.8693C217.72 29.7898 217.169 29.75 216.669 29.75C215.601 29.75 214.646 29.983 213.805 30.4489C212.976 30.9034 212.317 31.5398 211.828 32.358C211.351 33.1761 211.112 34.1193 211.112 35.1875V50H203.851ZM223.628 50V15.0909H237.401C240.048 15.0909 242.304 15.5966 244.168 16.608C246.031 17.608 247.452 19 248.429 20.7841C249.418 22.5568 249.912 24.6023 249.912 26.9205C249.912 29.2386 249.412 31.2841 248.412 33.0568C247.412 34.8295 245.963 36.2102 244.065 37.1989C242.179 38.1875 239.895 38.6818 237.213 38.6818H228.435V32.767H236.02C237.44 32.767 238.611 32.5227 239.531 32.0341C240.463 31.5341 241.156 30.8466 241.611 29.9716C242.077 29.0852 242.31 28.0682 242.31 26.9205C242.31 25.7614 242.077 24.75 241.611 23.8864C241.156 23.0114 240.463 22.3352 239.531 21.858C238.599 21.3693 237.418 21.125 235.986 21.125H231.009V50H223.628ZM261.332 50.4943C259.662 50.4943 258.173 50.2045 256.866 49.625C255.56 49.0341 254.526 48.1648 253.764 47.017C253.014 45.858 252.639 44.4148 252.639 42.6875C252.639 41.233 252.906 40.0114 253.44 39.0227C253.974 38.0341 254.702 37.2386 255.622 36.6364C256.543 36.0341 257.588 35.5795 258.759 35.2727C259.94 34.9659 261.179 34.75 262.474 34.625C263.997 34.4659 265.224 34.3182 266.156 34.1818C267.088 34.0341 267.764 33.8182 268.185 33.5341C268.605 33.25 268.815 32.8295 268.815 32.2727V32.1705C268.815 31.0909 268.474 30.2557 267.793 29.6648C267.122 29.0739 266.168 28.7784 264.929 28.7784C263.622 28.7784 262.582 29.0682 261.81 29.6477C261.037 30.2159 260.526 30.9318 260.276 31.7955L253.56 31.25C253.901 29.6591 254.571 28.2841 255.571 27.125C256.571 25.9545 257.861 25.0568 259.44 24.4318C261.031 23.7955 262.872 23.4773 264.963 23.4773C266.418 23.4773 267.81 23.6477 269.139 23.9886C270.48 24.3295 271.668 24.858 272.702 25.5739C273.747 26.2898 274.571 27.2102 275.173 28.3352C275.776 29.4489 276.077 30.7841 276.077 32.3409V50H269.19V46.3693H268.986C268.565 47.1875 268.003 47.9091 267.298 48.5341C266.594 49.1477 265.747 49.6307 264.759 49.983C263.77 50.3239 262.628 50.4943 261.332 50.4943ZM263.412 45.483C264.48 45.483 265.423 45.2727 266.241 44.8523C267.06 44.4205 267.702 43.8409 268.168 43.1136C268.634 42.3864 268.866 41.5625 268.866 40.642V37.8636C268.639 38.0114 268.327 38.1477 267.929 38.2727C267.543 38.3864 267.105 38.4943 266.616 38.5966C266.128 38.6875 265.639 38.7727 265.151 38.8523C264.662 38.9205 264.219 38.983 263.821 39.0398C262.969 39.1648 262.224 39.3636 261.588 39.6364C260.952 39.9091 260.457 40.2784 260.105 40.7443C259.753 41.1989 259.577 41.767 259.577 42.4489C259.577 43.4375 259.935 44.1932 260.651 44.7159C261.378 45.2273 262.298 45.483 263.412 45.483ZM285.256 59.8182C284.335 59.8182 283.472 59.7443 282.665 59.5966C281.869 59.4602 281.21 59.2841 280.688 59.0682L282.324 53.6477C283.176 53.9091 283.943 54.0511 284.625 54.0739C285.318 54.0966 285.915 53.9375 286.415 53.5966C286.926 53.2557 287.341 52.6761 287.659 51.858L288.085 50.75L278.693 23.8182H286.33L291.75 43.0455H292.023L297.494 23.8182H305.182L295.006 52.8295C294.517 54.2386 293.852 55.4659 293.011 56.5114C292.182 57.5682 291.131 58.3807 289.858 58.9489C288.585 59.5284 287.051 59.8182 285.256 59.8182Z" fill="white"/>
</g>
<defs>
<clipPath id="clip0_1_3">
<rect width="325" height="64" fill="white"/>
</clipPath>
</defs>
</svg>
